<svg xmlns="http://www.w3.org/2000/svg" version="1.1" xmlns:xlink="http://www.w3.org/1999/xlink" xmlns:svgjs="http://svgjs.dev/svgjs" viewBox="0 0 325 100"><rect width="100%" height="100%" fill="#ffa800"></rect><g fill="#000000">
    <rect width="100%" height="40" fill="#000000"></rect>

    <rect x="0" width="3.7037%" height="71.56870126061969" rx="7"></rect>
      <rect x="7.4074074074%" width="3.7037%" height="97.29477700199809" rx="7"></rect>
      <rect x="14.8148148148%" width="3.7037%" height="90.01851537583188" rx="7"></rect>
      <rect x="22.2222222222%" width="3.7037%" height="69.88443466888258" rx="7"></rect>
      <rect x="29.6296296296%" width="3.7037%" height="96.11435715658932" rx="7"></rect>
      <rect x="37.037037037%" width="3.7037%" height="66.04526518961826" rx="7"></rect>
      <rect x="44.4444444444%" width="3.7037%" height="73.38013808067247" rx="7"></rect>
      <rect x="51.8518518518%" width="3.7037%" height="66.32429359747067" rx="7"></rect>
      <rect x="59.2592592592%" width="3.7037%" height="62.74089963448882" rx="7"></rect>
      <rect x="66.6666666666%" width="3.7037%" height="76.61902476049761" rx="7"></rect>
      <rect x="74.074074074%" width="3.7037%" height="72.46229243309423" rx="7"></rect>
      <rect x="81.4814814814%" width="3.7037%" height="65.5064983999893" rx="7"></rect>
      <rect x="88.8888888888%" width="3.7037%" height="80.54104824881044" rx="7"></rect>
      <rect x="96.2962962962%" width="3.7037%" height="69.35255510149489" rx="7"></rect>
  </g><g fill="#ffa800">
    <rect x="3.7037%" y="18.21176689736654" width="3.7037%" height="60" rx="7"></rect>
      <rect x="11.1111111111%" y="2.5395949930110846" width="3.7037%" height="60" rx="7"></rect>
      <rect x="18.5185185185%" y="14.974819913057795" width="3.7037%" height="60" rx="7"></rect>
      <rect x="25.9259259259%" y="13.740607938192435" width="3.7037%" height="60" rx="7"></rect>
      <rect x="33.3333333333%" y="17.87231039731703" width="3.7037%" height="60" rx="7"></rect>
      <rect x="40.7407407407%" y="17.063384657266354" width="3.7037%" height="60" rx="7"></rect>
      <rect x="48.1481481481%" y="10.936298950739017" width="3.7037%" height="60" rx="7"></rect>
      <rect x="55.5555555555%" y="15.227369487436059" width="3.7037%" height="60" rx="7"></rect>
      <rect x="62.9629629629%" y="4.007755991998596" width="3.7037%" height="60" rx="7"></rect>
      <rect x="70.3703703703%" y="7.842502629861916" width="3.7037%" height="60" rx="7"></rect>
      <rect x="77.7777777777%" y="3.625044183330013" width="3.7037%" height="60" rx="7"></rect>
      <rect x="85.1851851851%" y="15.803088656885206" width="3.7037%" height="60" rx="7"></rect>
      <rect x="92.5925925925%" y="14.300631869321201" width="3.7037%" height="60" rx="7"></rect>
  </g></svg>