<svg xmlns="http://www.w3.org/2000/svg" version="1.1" xmlns:xlink="http://www.w3.org/1999/xlink" xmlns:svgjs="http://svgjs.dev/svgjs" viewBox="0 0 2400 800" opacity="1"><defs><linearGradient x1="50%" y1="0%" x2="50%" y2="100%" id="sssurf-grad"><stop stop-color="#ffa800" stop-opacity="1" offset="0%"></stop><stop stop-color="#e1bf7fff" stop-opacity="1" offset="100%"></stop></linearGradient></defs><g fill="url(#sssurf-grad)" transform="matrix(1,0,0,1,0,-123.56539916992188)"><path d="M 0 314.2465970564406 Q 600 450 600 325.90246244443705 Q 1200 450 1200 339.3117844920621 Q 1800 450 1800 313.58368131895554 Q 2400 450 2400 333.343012718652 L 2400 800 L 0 800 L 0 304.1307629221556 Z" transform="matrix(1,0,0,1,0,49)" opacity="0.05"></path><path d="M 0 314.2465970564406 Q 600 450 600 325.90246244443705 Q 1200 450 1200 339.3117844920621 Q 1800 450 1800 313.58368131895554 Q 2400 450 2400 333.343012718652 L 2400 800 L 0 800 L 0 304.1307629221556 Z" transform="matrix(1,0,0,1,0,98)" opacity="0.24"></path><path d="M 0 314.2465970564406 Q 600 450 600 325.90246244443705 Q 1200 450 1200 339.3117844920621 Q 1800 450 1800 313.58368131895554 Q 2400 450 2400 333.343012718652 L 2400 800 L 0 800 L 0 304.1307629221556 Z" transform="matrix(1,0,0,1,0,147)" opacity="0.43"></path><path d="M 0 314.2465970564406 Q 600 450 600 325.90246244443705 Q 1200 450 1200 339.3117844920621 Q 1800 450 1800 313.58368131895554 Q 2400 450 2400 333.343012718652 L 2400 800 L 0 800 L 0 304.1307629221556 Z" transform="matrix(1,0,0,1,0,196)" opacity="0.62"></path><path d="M 0 314.2465970564406 Q 600 450 600 325.90246244443705 Q 1200 450 1200 339.3117844920621 Q 1800 450 1800 313.58368131895554 Q 2400 450 2400 333.343012718652 L 2400 800 L 0 800 L 0 304.1307629221556 Z" transform="matrix(1,0,0,1,0,245)" opacity="0.81"></path><path d="M 0 314.2465970564406 Q 600 450 600 325.90246244443705 Q 1200 450 1200 339.3117844920621 Q 1800 450 1800 313.58368131895554 Q 2400 450 2400 333.343012718652 L 2400 800 L 0 800 L 0 304.1307629221556 Z" transform="matrix(1,0,0,1,0,294)" opacity="1.00"></path></g></svg>